<?xml version="1.0" standalone="no"?>
<!DOCTYPE svg PUBLIC "-//W3C//DTD SVG 20010904//EN"
 "http://www.w3.org/TR/2001/REC-SVG-20010904/DTD/svg10.dtd">
<svg version="1.0" xmlns="http://www.w3.org/2000/svg"
 width="1252.000000pt" height="447.000000pt" viewBox="0 0 1252.000000 447.000000"
 preserveAspectRatio="xMidYMid meet">

<g transform="translate(0.000000,447.000000) scale(0.100000,-0.100000)"
fill="#000000" stroke="none">
<path d="M3430 2320 l0 -1760 60 0 60 0 0 1760 0 1760 -60 0 -60 0 0 -1760z"/>
<path d="M1453 3853 l-43 -4 0 -179 c0 -178 0 -180 -22 -184 -13 -2 -62 -11
-110 -20 -47 -9 -93 -19 -102 -22 -14 -5 -16 13 -16 170 0 134 -3 176 -12 176
-31 0 -186 -58 -280 -104 l-103 -51 -3 -365 -2 -364 86 -87 86 -86 -21 -364
c-29 -506 -20 -456 -97 -536 l-64 -68 0 -239 c0 -228 1 -241 21 -262 l20 -22
70 30 c260 109 519 98 814 -34 50 -22 95 -42 100 -44 7 -3 9 101 7 302 l-3
307 -39 47 -40 48 0 433 0 434 85 130 c46 72 85 125 85 120 0 -6 -13 -57 -30
-115 -16 -58 -30 -110 -30 -116 0 -7 35 -9 108 -6 124 5 288 -16 418 -54 l85
-24 84 77 84 78 1 221 0 221 -94 36 c-172 66 -413 127 -502 127 l-24 0 0 189
c0 139 -3 192 -12 197 -14 9 -437 14 -505 7z m-148 -1223 c16 -17 19 -48 26
-233 4 -116 10 -263 13 -324 l5 -113 -89 0 -90 0 0 58 c0 31 5 176 10 321 11
296 14 311 74 311 20 0 40 -8 51 -20z"/>
<path d="M2220 3642 l0 -149 83 -22 c45 -12 126 -40 181 -61 54 -22 100 -40
102 -40 2 0 4 62 4 138 l0 139 -87 41 c-78 37 -253 102 -275 102 -4 0 -8 -67
-8 -148z"/>
<path d="M7036 3478 c-21 -30 -20 -54 4 -78 26 -26 81 -26 103 -2 21 23 22 66
1 86 -24 25 -90 21 -108 -6z"/>
<path d="M9005 3476 c-19 -29 -11 -72 15 -86 51 -27 110 1 110 53 0 37 -25 57
-70 57 -31 0 -43 -5 -55 -24z"/>
<path d="M10909 3477 c-41 -27 -69 -79 -69 -129 0 -36 -2 -38 -31 -38 -29 0
-30 -1 -27 -42 3 -39 6 -43 31 -46 l27 -3 0 -210 0 -209 65 0 65 0 0 210 0
210 45 0 45 0 0 45 0 45 -45 0 c-43 0 -45 2 -45 28 0 44 26 72 66 72 34 0 34
0 34 45 l0 45 -64 0 c-49 0 -71 -5 -97 -23z"/>
<path d="M4740 3145 l0 -345 65 0 65 0 0 209 c0 233 -4 221 74 221 73 0 75 -7
78 -231 l3 -194 63 -3 62 -3 0 208 c0 233 -5 254 -72 289 -35 19 -132 25 -180
11 l-28 -7 0 95 0 95 -65 0 -65 0 0 -345z"/>
<path d="M4260 3400 l0 -50 65 0 65 0 0 -275 0 -275 70 0 70 0 0 275 0 275 65
0 65 0 0 50 0 50 -200 0 -200 0 0 -50z"/>
<path d="M5950 3198 c0 -243 1 -256 23 -298 27 -55 71 -85 143 -100 84 -18
180 5 233 53 47 44 51 68 51 342 l0 255 -65 0 -65 0 0 -234 c0 -237 -5 -277
-38 -302 -26 -20 -86 -17 -115 7 l-27 20 -2 252 -3 252 -67 3 -68 3 0 -253z"/>
<path d="M9338 3433 l-58 -15 0 -54 c0 -53 0 -54 -30 -54 -29 0 -30 -2 -30
-45 0 -43 1 -45 30 -45 l30 0 0 -165 c0 -184 7 -213 60 -240 18 -9 56 -15 100
-15 l70 0 0 44 c0 41 -1 43 -25 38 -14 -2 -36 3 -50 12 -25 16 -25 17 -25 171
l0 155 40 0 40 0 0 45 0 45 -40 0 -40 0 0 70 c0 39 -3 70 -7 69 -5 -1 -34 -8
-65 -16z"/>
<path d="M5365 3306 c-52 -19 -109 -83 -126 -143 -18 -63 -15 -178 6 -228 20
-50 58 -91 110 -118 54 -29 190 -29 252 -1 l41 19 -15 38 c-13 32 -19 38 -37
32 -12 -4 -52 -9 -91 -12 -62 -5 -73 -3 -99 18 -30 24 -61 83 -51 99 4 6 74
10 162 10 l156 0 -6 72 c-12 140 -80 217 -198 224 -41 3 -78 -1 -104 -10z
m119 -76 c30 -11 56 -57 56 -100 l0 -30 -95 0 c-93 0 -95 0 -95 24 0 84 62
134 134 106z"/>
<path d="M6600 3310 c-25 -6 -57 -15 -73 -21 l-27 -12 2 -236 3 -236 65 0 65
0 5 210 5 210 57 3 c86 5 88 0 88 -235 l0 -193 65 0 65 0 0 204 c0 194 -1 205
-23 236 -36 55 -79 73 -171 76 -45 2 -101 -1 -126 -6z"/>
<path d="M7867 3305 c-89 -31 -137 -115 -137 -241 0 -91 11 -133 48 -182 51
-70 146 -101 255 -84 34 6 74 15 89 21 27 10 27 11 14 48 -11 31 -18 37 -37
35 -13 -2 -56 -5 -95 -9 -65 -5 -72 -3 -102 22 -29 25 -55 80 -45 98 2 4 74 7
159 7 l154 0 0 48 c0 186 -141 295 -303 237z m151 -100 c15 -18 22 -39 22 -66
l0 -39 -95 0 -95 0 0 26 c0 37 27 89 53 103 34 17 89 5 115 -24z"/>
<path d="M8364 3310 c-28 -5 -63 -14 -78 -19 l-26 -11 0 -240 0 -240 65 0 65
0 0 210 0 210 25 6 c14 3 40 4 59 2 33 -4 35 -2 45 36 5 22 8 42 7 44 -9 9
-116 10 -162 2z"/>
<path d="M8660 3298 c-60 -31 -84 -67 -84 -126 0 -71 27 -111 101 -147 79 -39
93 -52 93 -86 0 -53 -71 -75 -145 -44 l-35 14 -15 -36 c-8 -19 -15 -39 -15
-43 0 -14 95 -35 155 -34 83 1 140 31 166 87 22 50 24 86 5 130 -17 42 -40 61
-112 96 -33 16 -66 36 -73 45 -19 23 -6 64 24 72 27 7 91 1 116 -10 12 -5 20
3 31 33 l16 41 -51 15 c-71 21 -125 19 -177 -7z"/>
<path d="M10415 3306 c-52 -19 -109 -83 -125 -141 -19 -67 -9 -209 18 -262 28
-54 75 -89 137 -103 176 -39 297 101 271 313 -10 74 -58 154 -110 181 -50 25
-138 31 -191 12z m125 -86 c55 -29 61 -261 8 -317 -31 -33 -83 -29 -111 9 -38
52 -36 242 4 292 22 28 64 35 99 16z"/>
<path d="M7030 3055 l0 -256 63 3 62 3 3 253 2 252 -65 0 -65 0 0 -255z"/>
<path d="M7232 3298 c3 -7 42 -122 88 -255 l83 -243 62 0 62 0 86 255 86 256
-67 -3 -67 -3 -45 -160 c-25 -88 -48 -166 -51 -174 -3 -8 -20 42 -38 110 -17
68 -39 148 -47 177 l-15 52 -71 0 c-52 0 -69 -3 -66 -12z"/>
<path d="M9000 3065 c0 -135 0 -248 0 -252 0 -5 28 -8 63 -8 l62 0 3 253 2
252 -65 0 -65 0 0 -245z"/>
<path d="M9592 3106 c3 -190 5 -207 24 -233 33 -44 78 -65 142 -67 31 0 72 3
90 7 31 8 32 8 32 -23 0 -46 -25 -86 -61 -99 -41 -14 -64 -14 -126 2 l-52 14
-15 -36 -14 -36 31 -14 c44 -19 173 -26 227 -11 56 15 114 72 129 125 7 25 11
143 11 308 l0 267 -65 0 -65 0 0 -204 c0 -203 0 -204 -22 -210 -48 -12 -95 -6
-114 15 -17 19 -19 41 -22 210 l-3 189 -65 0 -65 0 3 -204z"/>
<path d="M2044 2629 c-17 -19 -20 -49 -29 -338 -6 -174 -9 -319 -7 -323 2 -5
40 -8 84 -8 l81 0 -7 218 c-11 364 -16 432 -38 454 -24 24 -60 23 -84 -3z"/>
<path d="M7291 2446 c-57 -32 -68 -111 -22 -157 25 -24 38 -29 79 -29 40 0 57
6 81 26 26 22 31 33 31 71 0 63 -40 103 -102 103 -24 -1 -54 -7 -67 -14z"/>
<path d="M9300 1850 l0 -590 95 0 95 0 0 359 0 359 52 22 c41 17 65 21 116 18
59 -4 67 -7 98 -41 l34 -37 0 -340 0 -340 100 0 100 0 0 333 c0 383 -4 408
-70 475 -70 70 -196 97 -325 69 -38 -8 -78 -18 -87 -22 -17 -7 -18 5 -18 159
l0 166 -95 0 -95 0 0 -590z"/>
<path d="M4350 1820 l0 -560 95 0 95 0 0 423 1 422 29 -60 c15 -33 125 -222
242 -420 l215 -360 86 -3 87 -3 0 561 0 560 -96 0 -95 0 3 -394 3 -393 -46 86
c-25 47 -127 223 -226 391 l-180 305 -107 3 -106 3 0 -561z"/>
<path d="M6318 2342 l-88 -25 0 -89 0 -88 -50 0 -51 0 3 -62 3 -63 48 -3 47
-3 0 -274 c0 -314 6 -360 57 -416 49 -54 99 -70 208 -67 l90 3 3 63 3 62 -51
0 c-44 0 -56 5 -81 29 l-29 29 0 286 0 286 70 0 70 0 0 65 0 65 -70 0 -70 0 0
115 c0 86 -3 115 -12 114 -7 -1 -52 -13 -100 -27z"/>
<path d="M6848 2343 l-88 -26 0 -88 0 -89 -50 0 -50 0 0 -65 0 -65 50 0 50 0
0 -294 c0 -310 3 -334 48 -395 39 -53 91 -71 205 -71 l97 0 0 65 0 65 -48 0
c-59 0 -88 19 -102 68 -5 21 -10 150 -10 299 l0 262 73 3 72 3 0 60 0 60 -72
3 -73 3 0 114 c0 63 -3 115 -7 114 -5 0 -47 -12 -95 -26z"/>
<path d="M5590 2141 c-134 -44 -217 -149 -250 -319 -16 -77 -8 -248 14 -317
56 -179 194 -275 378 -263 215 14 340 178 341 448 1 167 -38 285 -120 368 -66
66 -119 85 -238 89 -55 1 -111 -1 -125 -6z m200 -129 c56 -41 90 -159 90 -317
0 -222 -56 -335 -165 -335 -118 0 -175 140 -161 390 9 165 41 245 110 276 37
17 92 11 126 -14z"/>
<path d="M7775 2139 c-22 -5 -70 -19 -107 -30 l-68 -22 0 -413 0 -414 95 0 95
0 0 369 c0 331 2 370 17 382 10 9 48 15 98 17 95 4 134 -10 165 -61 19 -30 20
-52 20 -369 l0 -338 101 0 100 0 -3 353 c-3 339 -4 354 -25 392 -29 54 -68 89
-128 117 -43 19 -69 23 -185 25 -74 1 -153 -2 -175 -8z"/>
<path d="M8707 2140 c-120 -31 -213 -119 -259 -248 -28 -81 -36 -254 -14 -345
31 -131 95 -221 191 -266 79 -38 217 -40 309 -5 14 5 16 -2 16 -47 0 -58 -25
-123 -56 -151 -58 -51 -201 -64 -304 -28 -30 11 -58 19 -63 20 -4 0 -19 -26
-32 -57 -30 -66 -32 -63 70 -96 93 -29 283 -32 362 -4 82 29 137 77 175 154
l33 68 3 481 3 482 -63 22 c-50 18 -91 23 -198 26 -74 2 -152 -1 -173 -6z
m224 -120 c18 -10 19 -24 19 -310 l0 -299 -30 -16 c-16 -8 -54 -15 -85 -15
-147 0 -206 89 -206 311 0 175 41 282 123 322 38 19 149 23 179 7z"/>
<path d="M10280 2131 c-36 -10 -77 -23 -92 -29 l-28 -11 21 -53 c11 -29 22
-55 24 -57 2 -1 34 7 72 20 49 17 91 23 148 23 127 0 175 -39 175 -142 l0 -49
-92 5 c-157 8 -276 -36 -345 -126 -41 -54 -56 -108 -55 -195 1 -123 63 -212
182 -259 47 -19 75 -22 190 -23 132 0 203 11 278 42 l32 13 0 313 c0 363 -4
390 -73 461 -62 64 -130 86 -265 85 -71 0 -129 -6 -172 -18z m289 -407 l31 -6
0 -178 c0 -201 7 -186 -90 -197 -34 -3 -72 -1 -93 6 -66 22 -117 103 -117 186
0 81 53 166 114 184 37 11 112 13 155 5z"/>
<path d="M11115 2139 c-22 -5 -68 -19 -102 -30 l-63 -21 0 -414 0 -414 95 0
95 0 0 369 c0 331 2 370 17 382 26 22 163 25 202 4 58 -30 61 -48 61 -420 l0
-335 101 0 101 0 -4 365 -3 366 41 19 c81 40 178 19 221 -47 16 -24 18 -59 21
-365 l3 -338 94 0 95 0 0 348 c0 344 0 347 -24 398 -27 59 -82 107 -145 129
-91 31 -273 14 -352 -32 -25 -15 -30 -14 -85 13 -55 26 -69 28 -194 31 -74 1
-153 -2 -175 -8z"/>
<path d="M7250 1700 l0 -440 100 0 100 0 0 440 0 440 -100 0 -100 0 0 -440z"/>
<path d="M950 1225 c-87 -18 -187 -55 -257 -96 -60 -35 -220 -186 -242 -228
-13 -23 -11 -23 42 8 258 147 592 190 856 109 36 -11 140 -55 231 -98 91 -43
195 -87 231 -98 210 -64 428 -52 605 35 80 39 214 142 259 200 l30 38 -35 -23
c-112 -75 -244 -119 -380 -129 -174 -12 -318 24 -555 137 -239 114 -421 161
-620 159 -55 0 -129 -7 -165 -14z"/>
</g>
</svg>
